<svg xmlns="http://www.w3.org/2000/svg" viewBox="0 0 32.89 32.89"><defs><style>.cls-1{fill:#fff;}.cls-2{fill:#1877f2;}</style></defs><title>fb-logo-btn</title><g id="Layer_2" data-name="Layer 2"><g id="Layer_1-2" data-name="Layer 1"><path class="cls-1" d="M32.89,16.45A16.44,16.44,0,0,1,19,32.69V21.2h3.84l.73-4.75H19V13.36a2.38,2.38,0,0,1,2.68-2.57h2.08v-4a24.6,24.6,0,0,0-3.68-.33c-3.76,0-6.21,2.28-6.21,6.4v3.63H9.7V21.2h4.18V32.69a16.45,16.45,0,1,1,19-16.24Z"/><path class="cls-2" d="M19,13.36v3.09h4.57l-.73,4.75H19V32.69a16.55,16.55,0,0,1-5.13,0V21.2H9.7V16.45h4.18V12.82c0-4.12,2.45-6.4,6.21-6.4a24.6,24.6,0,0,1,3.68.33v4H21.69A2.38,2.38,0,0,0,19,13.36Z"/></g></g></svg>