<svg xmlns="http://www.w3.org/2000/svg" viewBox="0 0 161.07 161.07"><defs><style>.cls-1{fill-rule:evenodd;}</style></defs><title>icon-be-circle</title><g id="Layer_2" data-name="Layer 2"><g id="Layer_1-2" data-name="Layer 1"><path class="cls-1" d="M93.38,60.12H115V54.87H93.38Zm-33.8.25a15.61,15.61,0,0,1,3,.26,7.33,7.33,0,0,1,2.58.93A5,5,0,0,1,67,63.41a6.43,6.43,0,0,1,.65,3.06c0,2.23-.65,3.86-2,4.84a8.48,8.48,0,0,1-5.16,1.49H48.61V60.37Zm53.19,20.76A10.28,10.28,0,0,0,110.33,75c-1.26-1.4-3.39-2.15-6-2.15a9.1,9.1,0,0,0-4.21.86,8.45,8.45,0,0,0-2.68,2.13A7.61,7.61,0,0,0,96,78.59a12.29,12.29,0,0,0-.48,2.54ZM61.35,80.8a9.83,9.83,0,0,1,6.11,1.75c1.54,1.18,2.31,3.13,2.31,5.87a7.4,7.4,0,0,1-.7,3.45A5.59,5.59,0,0,1,67.17,94a7.63,7.63,0,0,1-2.77,1.13,14.42,14.42,0,0,1-3.28.34H48.61V80.8Zm1.34,23.72a27.33,27.33,0,0,0,7-.89,18.8,18.8,0,0,0,6-2.76,13.64,13.64,0,0,0,4.21-4.82,16.42,16.42,0,0,0-.86-15.53,12.68,12.68,0,0,0-7.31-5,13.16,13.16,0,0,0,5.43-4.39A11.65,11.65,0,0,0,79,64.47a14.31,14.31,0,0,0-1.22-6.24,10.26,10.26,0,0,0-3.47-4.06A15.19,15.19,0,0,0,68.93,52,33.09,33.09,0,0,0,62,51.3H36.89v53.22ZM123.36,87.8a27.66,27.66,0,0,0-.74-8.58,20.88,20.88,0,0,0-3.39-7.31,17,17,0,0,0-6-5.11,18.22,18.22,0,0,0-8.56-1.91,20.12,20.12,0,0,0-8,1.57A18.73,18.73,0,0,0,86.34,77.22a22.65,22.65,0,0,0-1.42,8.06A23.59,23.59,0,0,0,86.3,93.5a19,19,0,0,0,3.92,6.42,17.45,17.45,0,0,0,6.22,4.14,22.12,22.12,0,0,0,8.22,1.46,20,20,0,0,0,11.16-3c3.1-2,5.37-5.3,6.87-9.94h-9.32A6.81,6.81,0,0,1,110.54,96,9.42,9.42,0,0,1,105,97.61c-3,0-5.26-.78-6.84-2.33s-2.62-4.43-2.62-7.48ZM80.54,0A80.54,80.54,0,1,1,0,80.54,80.57,80.57,0,0,1,80.54,0Z"/></g></g></svg>