<?xml version="1.0" encoding="utf-8"?>
<!-- Generator: Adobe Illustrator 22.0.1, SVG Export Plug-In . SVG Version: 6.00 Build 0)  -->
<svg version="1.1" id="Layer_1" xmlns="http://www.w3.org/2000/svg" xmlns:xlink="http://www.w3.org/1999/xlink" x="0px" y="0px"
	 viewBox="0 0 400 400" style="enable-background:new 0 0 400 400;" xml:space="preserve">
<style type="text/css">
	.st0{opacity:0.4;enable-background:new    ;}
	.st1{fill:#FFFFFF;}
</style>
<title>nav-close</title>
<circle class="st0" cx="200" cy="200" r="200"/>
<path class="st1" d="M255.3,255.3c-2.9,2.9-7.6,2.9-10.5,0L200,210.5l-44.8,44.7c-2.9,2.9-7.6,3-10.5,0.1s-3-7.6-0.1-10.5l0.1-0.1
	l44.8-44.7l-44.8-44.7c-2.9-2.9-3-7.6-0.1-10.5s7.6-3,10.5-0.1l0.1,0.1l44.8,44.7l44.8-44.7c2.9-2.9,7.7-2.8,10.5,0.1
	c2.8,2.9,2.8,7.5,0,10.4L210.6,200l44.8,44.7C258.2,247.6,258.2,252.4,255.3,255.3z"/>
</svg>
